<svg xmlns="http://www.w3.org/2000/svg" version="1.1" width="800" height="600" style="position: absolute; left: 0px; top: 0px;"><desc style="-webkit-tap-highlight-color: rgba(0, 0, 0, 0);">Created with Raphaël</desc><defs style="-webkit-tap-highlight-color: rgba(0, 0, 0, 0);"><clipPath id="rc" style="-webkit-tap-highlight-color: rgba(0, 0, 0, 0);"><rect x="71" y="9" width="720" height="530" style="-webkit-tap-highlight-color: rgba(0, 0, 0, 0);"/></clipPath><clipPath id="rd" style="-webkit-tap-highlight-color: rgba(0, 0, 0, 0);"><rect x="71" y="9" width="720" height="530" style="-webkit-tap-highlight-color: rgba(0, 0, 0, 0);"/></clipPath><clipPath id="re" style="-webkit-tap-highlight-color: rgba(0, 0, 0, 0);"><rect x="71" y="9" width="720" height="530" style="-webkit-tap-highlight-color: rgba(0, 0, 0, 0);"/></clipPath><clipPath id="rf" style="-webkit-tap-highlight-color: rgba(0, 0, 0, 0);"><rect x="71" y="9" width="720" height="530" style="-webkit-tap-highlight-color: rgba(0, 0, 0, 0);"/></clipPath><clipPath id="rg" style="-webkit-tap-highlight-color: rgba(0, 0, 0, 0);"><rect x="71" y="9" width="720" height="530" style="-webkit-tap-highlight-color: rgba(0, 0, 0, 0);"/></clipPath><clipPath id="rh" style="-webkit-tap-highlight-color: rgba(0, 0, 0, 0);"><rect x="71" y="9" width="720" height="530" style="-webkit-tap-highlight-color: rgba(0, 0, 0, 0);"/></clipPath></defs><rect x="0" y="0" width="800" height="600" r="0" rx="0" ry="0" fill="#ffffff" stroke="none" fill-opacity="1" style="-webkit-tap-highlight-color: rgba(0, 0, 0, 0);"/><path fill="none" stroke="#e1e1e1" d="M75.88481178304215,8L75.88481178304215,540M87.03146327854301,8L87.03146327854301,540M96.68713199802171,8L96.68713199802171,540M105.20403540717359,8L105.20403540717359,540M162.94420895807116,8L162.94420895807116,540M192.26343258220254,8L192.26343258220254,540M213.06575279718214,8L213.06575279718214,540M229.20128591812056,8L229.20128591812056,540M242.38497642131355,8L242.38497642131355,540M253.5316279168144,8L253.5316279168144,540M263.1872966362931,8L263.1872966362931,540M271.70420004544496,8L271.70420004544496,540M329.44437359634253,8L329.44437359634253,540M358.76359722047397,8L358.76359722047397,540M379.5659174354535,8L379.5659174354535,540M395.70145055639193,8L395.70145055639193,540M408.88514105958495,8L408.88514105958495,540M420.03179255508576,8L420.03179255508576,540M429.6874612745645,8L429.6874612745645,540M438.2043646837164,8L438.2043646837164,540M495.9445382346139,8L495.9445382346139,540M525.2637618587453,8L525.2637618587453,540M546.0660820737249,8L546.0660820737249,540M562.2016151946633,8L562.2016151946633,540M575.3853056978564,8L575.3853056978564,540M586.5319571933571,8L586.5319571933571,540M596.1876259128359,8L596.1876259128359,540M604.7045293219877,8L604.7045293219877,540M662.4447028728853,8L662.4447028728853,540M691.7639264970167,8L691.7639264970167,540M712.5662467119963,8L712.5662467119963,540M728.7017798329347,8L728.7017798329347,540M741.8854703361277,8L741.8854703361277,540M753.0321218316286,8L753.0321218316286,540M762.6877905511074,8L762.6877905511074,540M771.2046939602592,8L771.2046939602592,540" stroke-opacity="1" stroke-width="1" clip-path="url(#rc)" style="-webkit-tap-highlight-color: rgba(0, 0, 0, 0); stroke-width: 1px;"/><path fill="none" stroke="#969696" d="M112.82266511896019,8L112.82266511896019,540M279.32282975723155,8L279.32282975723155,540M445.8229943955029,8L445.8229943955029,540M612.3231590337743,8L612.3231590337743,540M778.8233236720457,8L778.8233236720457,540M70,539.72782369146L792,539.72782369146M70,380.60936639118455L792,380.60936639118455M70,221.4909090909091L792,221.4909090909091M70,62.372451790633626L792,62.372451790633626" stroke-opacity="1" stroke-width="1" clip-path="url(#rd)" style="-webkit-tap-highlight-color: rgba(0, 0, 0, 0); stroke-width: 1px;"/><path fill="none" stroke="#000000" d="M112.82266511896019,8L112.82266511896019,16M112.82266511896019,540L112.82266511896019,532M279.32282975723155,8L279.32282975723155,16M279.32282975723155,540L279.32282975723155,532M445.8229943955029,8L445.8229943955029,16M445.8229943955029,540L445.8229943955029,532M612.3231590337743,8L612.3231590337743,16M612.3231590337743,540L612.3231590337743,532M778.8233236720457,8L778.8233236720457,16M778.8233236720457,540L778.8233236720457,532" stroke-opacity="1" stroke-width="1" style="-webkit-tap-highlight-color: rgba(0, 0, 0, 0); stroke-width: 1px;"/><path fill="none" stroke="#000000" d="M112.82266511896019,8L112.82266511896019,12M112.82266511896019,540L112.82266511896019,536M279.32282975723155,8L279.32282975723155,12M279.32282975723155,540L279.32282975723155,536M445.8229943955029,8L445.8229943955029,12M445.8229943955029,540L445.8229943955029,536M612.3231590337743,8L612.3231590337743,12M612.3231590337743,540L612.3231590337743,536M778.8233236720457,8L778.8233236720457,12M778.8233236720457,540L778.8233236720457,536" stroke-opacity="1" stroke-width="1" style="-webkit-tap-highlight-color: rgba(0, 0, 0, 0); stroke-width: 1px;"/><text x="95.35391511896019" y="560" text-anchor="start" font="10px &quot;Arial&quot;" stroke="none" fill="#000000" style="-webkit-tap-highlight-color: rgba(0, 0, 0, 0); text-anchor: start; font-style: normal; font-variant: normal; font-weight: normal; font-stretch: normal; font-size: 18px; line-height: normal; font-family: Tahoma;" transform="" fill-opacity="1" font-size="18px" font-family="Tahoma"><tspan style="-webkit-tap-highlight-color: rgba(0, 0, 0, 0);">0.01</tspan></text><text x="266.76032975723155" y="560" text-anchor="start" font="10px &quot;Arial&quot;" stroke="none" fill="#000000" style="-webkit-tap-highlight-color: rgba(0, 0, 0, 0); text-anchor: start; font-style: normal; font-variant: normal; font-weight: normal; font-stretch: normal; font-size: 18px; line-height: normal; font-family: Tahoma;" transform="" fill-opacity="1" font-size="18px" font-family="Tahoma"><tspan style="-webkit-tap-highlight-color: rgba(0, 0, 0, 0);">0.1</tspan></text><text x="440.9011193955029" y="560" text-anchor="start" font="10px &quot;Arial&quot;" stroke="none" fill="#000000" style="-webkit-tap-highlight-color: rgba(0, 0, 0, 0); text-anchor: start; font-style: normal; font-variant: normal; font-weight: normal; font-stretch: normal; font-size: 18px; line-height: normal; font-family: Tahoma;" transform="" fill-opacity="1" font-size="18px" font-family="Tahoma"><tspan style="-webkit-tap-highlight-color: rgba(0, 0, 0, 0);">1</tspan></text><text x="602.4950340337743" y="560" text-anchor="start" font="10px &quot;Arial&quot;" stroke="none" fill="#000000" style="-webkit-tap-highlight-color: rgba(0, 0, 0, 0); text-anchor: start; font-style: normal; font-variant: normal; font-weight: normal; font-stretch: normal; font-size: 18px; line-height: normal; font-family: Tahoma;" transform="" fill-opacity="1" font-size="18px" font-family="Tahoma"><tspan style="-webkit-tap-highlight-color: rgba(0, 0, 0, 0);">10</tspan></text><text x="764.0733236720457" y="560" text-anchor="start" font="10px &quot;Arial&quot;" stroke="none" fill="#000000" style="-webkit-tap-highlight-color: rgba(0, 0, 0, 0); text-anchor: start; font-style: normal; font-variant: normal; font-weight: normal; font-stretch: normal; font-size: 18px; line-height: normal; font-family: Tahoma;" transform="" fill-opacity="1" font-size="18px" font-family="Tahoma"><tspan style="-webkit-tap-highlight-color: rgba(0, 0, 0, 0);">100</tspan></text><path fill="none" stroke="#000000" d="M70,539.72782369146L78,539.72782369146M792,539.72782369146L784,539.72782369146M70,380.60936639118455L78,380.60936639118455M792,380.60936639118455L784,380.60936639118455M70,221.4909090909091L78,221.4909090909091M792,221.4909090909091L784,221.4909090909091M70,62.372451790633626L78,62.372451790633626M792,62.372451790633626L784,62.372451790633626" stroke-opacity="1" stroke-width="1" style="-webkit-tap-highlight-color: rgba(0, 0, 0, 0); stroke-width: 1px;"/><path fill="none" stroke="#000000" d="M0,0" stroke-opacity="1" stroke-width="1" style="-webkit-tap-highlight-color: rgba(0, 0, 0, 0); stroke-width: 1px;"/><text x="36.5" y="69.37245179904069" text-anchor="start" font="10px &quot;Arial&quot;" stroke="none" fill="#000000" style="-webkit-tap-highlight-color: rgba(0, 0, 0, 0); text-anchor: start; font-style: normal; font-variant: normal; font-weight: normal; font-stretch: normal; font-size: 18px; line-height: normal; font-family: Tahoma;" transform="" fill-opacity="1" font-size="18px" font-family="Tahoma"><tspan style="-webkit-tap-highlight-color: rgba(0, 0, 0, 0);">150</tspan></text><text x="36.5" y="228.49091242009945" text-anchor="start" font="10px &quot;Arial&quot;" stroke="none" fill="#000000" style="-webkit-tap-highlight-color: rgba(0, 0, 0, 0); text-anchor: start; font-style: normal; font-variant: normal; font-weight: normal; font-stretch: normal; font-size: 18px; line-height: normal; font-family: Tahoma;" transform="" fill-opacity="1" font-size="18px" font-family="Tahoma"><tspan style="-webkit-tap-highlight-color: rgba(0, 0, 0, 0);">100</tspan></text><text x="46.34375" y="387.6093577823691" text-anchor="start" font="10px &quot;Arial&quot;" stroke="none" fill="#000000" style="-webkit-tap-highlight-color: rgba(0, 0, 0, 0); text-anchor: start; font-style: normal; font-variant: normal; font-weight: normal; font-stretch: normal; font-size: 18px; line-height: normal; font-family: Tahoma;" transform="" fill-opacity="1" font-size="18px" font-family="Tahoma"><tspan style="-webkit-tap-highlight-color: rgba(0, 0, 0, 0);">50</tspan></text><text x="56.15625" y="546.7278031446388" text-anchor="start" font="10px &quot;Arial&quot;" stroke="none" fill="#000000" style="-webkit-tap-highlight-color: rgba(0, 0, 0, 0); text-anchor: start; font-style: normal; font-variant: normal; font-weight: normal; font-stretch: normal; font-size: 18px; line-height: normal; font-family: Tahoma;" transform="" fill-opacity="1" font-size="18px" font-family="Tahoma"><tspan style="-webkit-tap-highlight-color: rgba(0, 0, 0, 0);">0</tspan></text><text x="197.34375" y="593.5" text-anchor="start" font="10px &quot;Arial&quot;" stroke="none" fill="#000000" style="-webkit-tap-highlight-color: rgba(0, 0, 0, 0); text-anchor: start; font-style: normal; font-variant: normal; font-weight: normal; font-stretch: normal; font-size: 25px; line-height: normal; font-family: Tahoma;" transform="" fill-opacity="1" font-size="25px" font-family="Tahoma"><tspan style="-webkit-tap-highlight-color: rgba(0, 0, 0, 0);">Semi-Major Axis [Astronomical Units (AU)]</tspan></text><text x="-46.640625" y="284" text-anchor="start" font="10px &quot;Arial&quot;" stroke="none" fill="#000000" style="-webkit-tap-highlight-color: rgba(0, 0, 0, 0); text-anchor: start; font-style: normal; font-variant: normal; font-weight: normal; font-stretch: normal; font-size: 25px; line-height: normal; font-family: Tahoma;" transform="rotate(-90 16.500000000000004 274)" fill-opacity="1" font-size="25px" font-family="Tahoma"><tspan style="-webkit-tap-highlight-color: rgba(0, 0, 0, 0);">Distribution</tspan></text><path fill="none" stroke="#320000" d="M74.05617977528102,539.7278236914601L74.05617977528102,536.5454545454546L91.90337078651697,536.5454545454546L91.90337078651697,536.5454545454546L109.75056179775291,536.5454545454546L109.75056179775291,536.5454545454546L127.59775280898886,536.5454545454546L127.59775280898886,520.633608815427L145.4449438202248,520.633608815427L145.4449438202248,526.998347107438L163.2921348314608,526.998347107438L163.2921348314608,485.6275482093664L181.13932584269673,485.6275482093664L181.13932584269673,406.0683195592287L198.98651685393267,406.0683195592287L198.98651685393267,259.67933884297526L216.83370786516863,259.67933884297526L216.83370786516863,11.454545454545517L234.68089887640457,11.454545454545517L234.68089887640457,62.37245179063367L252.52808988764048,62.37245179063367L252.52808988764048,97.37851239669428L270.3752808988765,97.37851239669428L270.3752808988765,81.46666666666673L288.22247191011246,81.46666666666673L288.22247191011246,103.74325068870529L306.06966292134837,103.74325068870529L306.06966292134837,243.7674931129477L323.91685393258433,243.7674931129477L323.91685393258433,294.68539944903586L341.7640449438203,294.68539944903586L341.7640449438203,310.5972451790634L359.61123595505626,310.5972451790634L359.61123595505626,415.6154269972452L377.45842696629217,415.6154269972452L377.45842696629217,431.52727272727276L395.30561797752813,431.52727272727276L395.30561797752813,460.16859504132236L413.1528089887641,460.16859504132236L413.1528089887641,444.2567493112948L431,444.2567493112948L431,421.98016528925626L448.847191011236,421.98016528925626L448.847191011236,358.33278236914606L466.694382022472,358.33278236914606L466.694382022472,418.7977961432507L484.54157303370783,418.7977961432507L484.54157303370783,383.7917355371901L502.38876404494385,383.7917355371901L502.38876404494385,412.4330578512397L520.2359550561798,412.4330578512397L520.2359550561798,453.8038567493113L538.0831460674158,453.8038567493113L538.0831460674158,485.6275482093664L555.9303370786517,485.6275482093664L555.9303370786517,498.35702479338846L573.7775280898877,498.35702479338846L573.7775280898877,536.5454545454546L591.6247191011236,536.5454545454546L591.6247191011236,536.5454545454546L609.4719101123595,536.5454545454546L609.4719101123595,539.7278236914601" stroke-opacity="1" stroke-width="2" clip-path="url(#re)" style="-webkit-tap-highlight-color: rgba(0, 0, 0, 0); stroke-width: 2px;"/><path fill="none" stroke="#320000" d="M627.3191011235955,539.7278236914601L627.3191011235955,536.5454545454546L645.1662921348315,536.5454545454546L645.1662921348315,539.7278236914601" stroke-opacity="1" stroke-width="2" clip-path="url(#rf)" style="-webkit-tap-highlight-color: rgba(0, 0, 0, 0); stroke-width: 2px;"/><path fill="none" stroke="#320000" d="M680.8606741573034,539.7278236914601L680.8606741573034,536.5454545454546L698.7078651685392,536.5454545454546L698.7078651685392,539.7278236914601" stroke-opacity="1" stroke-width="2" clip-path="url(#rg)" style="-webkit-tap-highlight-color: rgba(0, 0, 0, 0); stroke-width: 2px;"/><path fill="none" stroke="#320000" d="M716.5550561797752,539.7278236914601L716.5550561797752,536.5454545454546L734.4022471910112,536.5454545454546L734.4022471910112,536.5454545454546L752.2494382022471,536.5454545454546L752.2494382022471,539.7278236914601" stroke-opacity="1" stroke-width="2" clip-path="url(#rh)" style="-webkit-tap-highlight-color: rgba(0, 0, 0, 0); stroke-width: 2px;"/><rect x="70" y="8" width="722" height="532" r="0" rx="0" ry="0" fill="none" stroke="#000000" stroke-opacity="1" stroke-width="2" style="-webkit-tap-highlight-color: rgba(0, 0, 0, 0); stroke-width: 2px;"/><rect x="559.40625" y="13" width="227.59375" height="28" r="0" rx="0" ry="0" fill="#ffffff" stroke="none" fill-opacity="0.6" style="-webkit-tap-highlight-color: rgba(0, 0, 0, 0);"/><text x="564.40625" y="34" text-anchor="start" font="10px &quot;Arial&quot;" stroke="none" fill="#646464" style="-webkit-tap-highlight-color: rgba(0, 0, 0, 0); text-anchor: start; font-style: normal; font-variant: normal; font-weight: normal; font-stretch: normal; font-size: 18px; line-height: normal; font-family: Tahoma;" transform="" fill-opacity="1" font-size="18px" font-family="Tahoma"><tspan style="-webkit-tap-highlight-color: rgba(0, 0, 0, 0);">exoplanets.org | 6/29/2015</tspan></text></svg>