<svg xmlns="http://www.w3.org/2000/svg" version="1.1" width="800" height="600" style="position: absolute; left: 0px; top: 0px;"><desc style="-webkit-tap-highlight-color: rgba(0, 0, 0, 0);">Created with Raphaël</desc><defs style="-webkit-tap-highlight-color: rgba(0, 0, 0, 0);"><clipPath id="r9" style="-webkit-tap-highlight-color: rgba(0, 0, 0, 0);"><rect x="71" y="9" width="720" height="530" style="-webkit-tap-highlight-color: rgba(0, 0, 0, 0);"/></clipPath><clipPath id="ra" style="-webkit-tap-highlight-color: rgba(0, 0, 0, 0);"><rect x="71" y="9" width="720" height="530" style="-webkit-tap-highlight-color: rgba(0, 0, 0, 0);"/></clipPath><clipPath id="rb" style="-webkit-tap-highlight-color: rgba(0, 0, 0, 0);"><rect x="71" y="9" width="720" height="530" style="-webkit-tap-highlight-color: rgba(0, 0, 0, 0);"/></clipPath></defs><rect x="0" y="0" width="800" height="600" r="0" rx="0" ry="0" fill="#ffffff" stroke="none" fill-opacity="1" style="-webkit-tap-highlight-color: rgba(0, 0, 0, 0);"/><path fill="none" stroke="#e1e1e1" d="M123.40654823627644,8L123.40654823627644,540M152.27466318273076,8L152.27466318273076,540M172.75691669727192,8L172.75691669727192,540M188.64418679790958,8L188.64418679790958,540M201.62503164372626,8L201.62503164372626,540M212.60017957961296,8L212.60017957961296,540M222.10728515826733,8L222.10728515826733,540M230.49314659018066,8L230.49314659018066,540M287.3449237199005,8L287.3449237199005,540M316.2130386663549,8L316.2130386663549,540M336.695292180896,8L336.695292180896,540M352.5825622815336,8L352.5825622815336,540M365.5634071273504,8L365.5634071273504,540M376.5385550632371,8L376.5385550632371,540M386.04566064189146,8L386.04566064189146,540M394.43152207380473,8L394.43152207380473,540M451.28329920352456,8L451.28329920352456,540M480.15141414997896,8L480.15141414997896,540M500.63366766452003,8L500.63366766452003,540M516.5209377651577,8L516.5209377651577,540M529.5017826109745,8L529.5017826109745,540M540.4769305468611,8L540.4769305468611,540M549.9840361255156,8L549.9840361255156,540M558.3698975574289,8L558.3698975574289,540M615.2216746871487,8L615.2216746871487,540M644.0897896336031,8L644.0897896336031,540M664.5720431481441,8L664.5720431481441,540M680.4593132487818,8L680.4593132487818,540M693.4401580945986,8L693.4401580945986,540M704.4153060304851,8L704.4153060304851,540M713.9224116091395,8L713.9224116091395,540M722.3082730410529,8L722.3082730410529,540M779.1600501707728,8L779.1600501707728,540" stroke-opacity="1" stroke-width="1" clip-path="url(#r9)" style="-webkit-tap-highlight-color: rgba(0, 0, 0, 0); stroke-width: 1px;"/><path fill="none" stroke="#969696" d="M74.05617977528095,8L74.05617977528095,540M237.99455525890505,8L237.99455525890505,540M401.9329307425291,8L401.9329307425291,540M565.8713062261531,8L565.8713062261531,540M729.8096817097772,8L729.8096817097772,540M70,385.58181818181816L792,385.58181818181816M70,221.4909090909091L792,221.4909090909091M70,57.400000000000006L792,57.400000000000006" stroke-opacity="1" stroke-width="1" clip-path="url(#ra)" style="-webkit-tap-highlight-color: rgba(0, 0, 0, 0); stroke-width: 1px;"/><path fill="none" stroke="#000000" d="M74.05617977528095,8L74.05617977528095,16M74.05617977528095,540L74.05617977528095,532M237.99455525890505,8L237.99455525890505,16M237.99455525890505,540L237.99455525890505,532M401.9329307425291,8L401.9329307425291,16M401.9329307425291,540L401.9329307425291,532M565.8713062261531,8L565.8713062261531,16M565.8713062261531,540L565.8713062261531,532M729.8096817097772,8L729.8096817097772,16M729.8096817097772,540L729.8096817097772,532" stroke-opacity="1" stroke-width="1" style="-webkit-tap-highlight-color: rgba(0, 0, 0, 0); stroke-width: 1px;"/><path fill="none" stroke="#000000" d="M74.05617977528095,8L74.05617977528095,12M74.05617977528095,540L74.05617977528095,536M237.99455525890505,8L237.99455525890505,12M237.99455525890505,540L237.99455525890505,536M401.9329307425291,8L401.9329307425291,12M401.9329307425291,540L401.9329307425291,536M565.8713062261531,8L565.8713062261531,12M565.8713062261531,540L565.8713062261531,536M729.8096817097772,8L729.8096817097772,12M729.8096817097772,540L729.8096817097772,536" stroke-opacity="1" stroke-width="1" style="-webkit-tap-highlight-color: rgba(0, 0, 0, 0); stroke-width: 1px;"/><text x="58.75930477528095" y="562.6999877929688" text-anchor="start" font="10px &quot;Arial&quot;" stroke="none" fill="#000000" style="-webkit-tap-highlight-color: rgba(0, 0, 0, 0); text-anchor: start; font-style: normal; font-variant: normal; font-weight: normal; font-stretch: normal; font-size: 18px; line-height: normal; font-family: Tahoma;" transform="" fill-opacity="1" font-size="18px" font-family="Tahoma"><tspan style="-webkit-tap-highlight-color: rgba(0, 0, 0, 0);">10</tspan></text><text x="78.41555477528095" y="552.6000244140625" text-anchor="start" font="10px &quot;Arial&quot;" stroke="none" fill="#000000" style="-webkit-tap-highlight-color: rgba(0, 0, 0, 0); text-anchor: start; font-style: normal; font-variant: normal; font-weight: normal; font-stretch: normal; font-size: 12px; line-height: normal; font-family: Tahoma;" transform="" fill-opacity="1" font-size="12px" font-family="Tahoma"><tspan style="-webkit-tap-highlight-color: rgba(0, 0, 0, 0);">-3</tspan></text><text x="220.52580525890505" y="560" text-anchor="start" font="10px &quot;Arial&quot;" stroke="none" fill="#000000" style="-webkit-tap-highlight-color: rgba(0, 0, 0, 0); text-anchor: start; font-style: normal; font-variant: normal; font-weight: normal; font-stretch: normal; font-size: 18px; line-height: normal; font-family: Tahoma;" transform="" fill-opacity="1" font-size="18px" font-family="Tahoma"><tspan style="-webkit-tap-highlight-color: rgba(0, 0, 0, 0);">0.01</tspan></text><text x="389.3704307425291" y="560" text-anchor="start" font="10px &quot;Arial&quot;" stroke="none" fill="#000000" style="-webkit-tap-highlight-color: rgba(0, 0, 0, 0); text-anchor: start; font-style: normal; font-variant: normal; font-weight: normal; font-stretch: normal; font-size: 18px; line-height: normal; font-family: Tahoma;" transform="" fill-opacity="1" font-size="18px" font-family="Tahoma"><tspan style="-webkit-tap-highlight-color: rgba(0, 0, 0, 0);">0.1</tspan></text><text x="560.9494312261531" y="560" text-anchor="start" font="10px &quot;Arial&quot;" stroke="none" fill="#000000" style="-webkit-tap-highlight-color: rgba(0, 0, 0, 0); text-anchor: start; font-style: normal; font-variant: normal; font-weight: normal; font-stretch: normal; font-size: 18px; line-height: normal; font-family: Tahoma;" transform="" fill-opacity="1" font-size="18px" font-family="Tahoma"><tspan style="-webkit-tap-highlight-color: rgba(0, 0, 0, 0);">1</tspan></text><text x="719.9815567097772" y="560" text-anchor="start" font="10px &quot;Arial&quot;" stroke="none" fill="#000000" style="-webkit-tap-highlight-color: rgba(0, 0, 0, 0); text-anchor: start; font-style: normal; font-variant: normal; font-weight: normal; font-stretch: normal; font-size: 18px; line-height: normal; font-family: Tahoma;" transform="" fill-opacity="1" font-size="18px" font-family="Tahoma"><tspan style="-webkit-tap-highlight-color: rgba(0, 0, 0, 0);">10</tspan></text><path fill="none" stroke="#000000" d="M70,385.58181818181816L78,385.58181818181816M792,385.58181818181816L784,385.58181818181816M70,221.4909090909091L78,221.4909090909091M792,221.4909090909091L784,221.4909090909091M70,57.400000000000006L78,57.400000000000006M792,57.400000000000006L784,57.400000000000006" stroke-opacity="1" stroke-width="1" style="-webkit-tap-highlight-color: rgba(0, 0, 0, 0); stroke-width: 1px;"/><path fill="none" stroke="#000000" d="M0,0" stroke-opacity="1" stroke-width="1" style="-webkit-tap-highlight-color: rgba(0, 0, 0, 0); stroke-width: 1px;"/><text x="36.5" y="64.3999984741211" text-anchor="start" font="10px &quot;Arial&quot;" stroke="none" fill="#000000" style="-webkit-tap-highlight-color: rgba(0, 0, 0, 0); text-anchor: start; font-style: normal; font-variant: normal; font-weight: normal; font-stretch: normal; font-size: 18px; line-height: normal; font-family: Tahoma;" transform="" fill-opacity="1" font-size="18px" font-family="Tahoma"><tspan style="-webkit-tap-highlight-color: rgba(0, 0, 0, 0);">150</tspan></text><text x="36.5" y="228.49091242009945" text-anchor="start" font="10px &quot;Arial&quot;" stroke="none" fill="#000000" style="-webkit-tap-highlight-color: rgba(0, 0, 0, 0); text-anchor: start; font-style: normal; font-variant: normal; font-weight: normal; font-stretch: normal; font-size: 18px; line-height: normal; font-family: Tahoma;" transform="" fill-opacity="1" font-size="18px" font-family="Tahoma"><tspan style="-webkit-tap-highlight-color: rgba(0, 0, 0, 0);">100</tspan></text><text x="46.34375" y="392.5818187366832" text-anchor="start" font="10px &quot;Arial&quot;" stroke="none" fill="#000000" style="-webkit-tap-highlight-color: rgba(0, 0, 0, 0); text-anchor: start; font-style: normal; font-variant: normal; font-weight: normal; font-stretch: normal; font-size: 18px; line-height: normal; font-family: Tahoma;" transform="" fill-opacity="1" font-size="18px" font-family="Tahoma"><tspan style="-webkit-tap-highlight-color: rgba(0, 0, 0, 0);">50</tspan></text><text x="283.75" y="593.5" text-anchor="start" font="10px &quot;Arial&quot;" stroke="none" fill="#000000" style="-webkit-tap-highlight-color: rgba(0, 0, 0, 0); text-anchor: start; font-style: normal; font-variant: normal; font-weight: normal; font-stretch: normal; font-size: 25px; line-height: normal; font-family: Tahoma;" transform="" fill-opacity="1" font-size="25px" font-family="Tahoma"><tspan style="-webkit-tap-highlight-color: rgba(0, 0, 0, 0);">Planet Mass [Jupiter Mass]</tspan></text><text x="-46.640625" y="284" text-anchor="start" font="10px &quot;Arial&quot;" stroke="none" fill="#000000" style="-webkit-tap-highlight-color: rgba(0, 0, 0, 0); text-anchor: start; font-style: normal; font-variant: normal; font-weight: normal; font-stretch: normal; font-size: 25px; line-height: normal; font-family: Tahoma;" transform="rotate(-90 16.500000000000004 274)" fill-opacity="1" font-size="25px" font-family="Tahoma"><tspan style="-webkit-tap-highlight-color: rgba(0, 0, 0, 0);">Distribution</tspan></text><path fill="none" stroke="#320000" d="M74.05617977528097,549.6727272727273L74.05617977528097,533.2636363636365L91.90337078651693,533.2636363636365L91.90337078651693,529.9818181818182L109.7505617977529,529.9818181818182L109.7505617977529,516.8545454545455L127.59775280898879,516.8545454545455L127.59775280898879,533.2636363636365L145.44494382022475,533.2636363636365L145.44494382022475,500.4454545454546L163.29213483146071,500.4454545454546L163.29213483146071,477.4727272727273L181.13932584269668,477.4727272727273L181.13932584269668,434.80909090909097L198.98651685393264,434.80909090909097L198.98651685393264,428.2454545454546L216.83370786516858,428.2454545454546L216.83370786516858,392.1454545454546L234.68089887640454,392.1454545454546L234.68089887640454,218.20909090909092L252.5280898876405,218.20909090909092L252.5280898876405,34.427272727272715L270.3752808988764,34.427272727272715L270.3752808988764,11.454545454545443L288.2224719101124,11.454545454545443L288.2224719101124,155.85454545454547L306.0696629213483,155.85454545454547L306.0696629213483,352.7636363636364L323.9168539325843,352.7636363636364L323.9168539325843,388.8636363636364L341.76404494382024,388.8636363636364L341.76404494382024,434.80909090909097L359.6112359550562,434.80909090909097L359.6112359550562,490.6L377.45842696629217,490.6L377.45842696629217,484.03636363636366L395.30561797752813,484.03636363636366L395.30561797752813,507.00909090909096L413.1528089887641,507.00909090909096L413.1528089887641,536.5454545454546L431,536.5454545454546L431,513.5727272727273L448.84719101123596,513.5727272727273L448.84719101123596,487.31818181818187L466.69438202247187,487.31818181818187L466.69438202247187,484.03636363636366L484.5415730337079,484.03636363636366L484.5415730337079,470.90909090909093L502.38876404494385,470.90909090909093L502.38876404494385,434.80909090909097L520.2359550561798,434.80909090909097L520.2359550561798,362.6090909090909L538.0831460674158,362.6090909090909L538.0831460674158,401.9909090909091L555.9303370786517,401.9909090909091L555.9303370786517,356.04545454545456L573.7775280898877,356.04545454545456L573.7775280898877,382.3L591.6247191011236,382.3L591.6247191011236,369.1727272727273L609.4719101123595,369.1727272727273L609.4719101123595,339.6363636363637L627.3191011235955,339.6363636363637L627.3191011235955,415.1181818181818L645.1662921348316,415.1181818181818L645.1662921348316,451.21818181818185L663.0134831460674,451.21818181818185L663.0134831460674,461.0636363636364L680.8606741573033,461.0636363636364L680.8606741573033,507.00909090909096L698.7078651685392,507.00909090909096L698.7078651685392,457.7818181818182L716.5550561797752,457.7818181818182L716.5550561797752,477.4727272727273L734.4022471910113,477.4727272727273L734.4022471910113,513.5727272727273L752.2494382022472,513.5727272727273L752.2494382022472,529.9818181818182L770.0966292134831,529.9818181818182L770.0966292134831,536.5454545454546L787.9438202247192,536.5454545454546L787.9438202247192,549.6727272727273" stroke-opacity="1" stroke-width="2" clip-path="url(#rb)" style="-webkit-tap-highlight-color: rgba(0, 0, 0, 0); stroke-width: 2px;"/><rect x="70" y="8" width="722" height="532" r="0" rx="0" ry="0" fill="none" stroke="#000000" stroke-opacity="1" stroke-width="2" style="-webkit-tap-highlight-color: rgba(0, 0, 0, 0); stroke-width: 2px;"/><rect x="559.40625" y="13" width="227.59375" height="28" r="0" rx="0" ry="0" fill="#ffffff" stroke="none" fill-opacity="0.6" style="-webkit-tap-highlight-color: rgba(0, 0, 0, 0);"/><text x="564.40625" y="34" text-anchor="start" font="10px &quot;Arial&quot;" stroke="none" fill="#646464" style="-webkit-tap-highlight-color: rgba(0, 0, 0, 0); text-anchor: start; font-style: normal; font-variant: normal; font-weight: normal; font-stretch: normal; font-size: 18px; line-height: normal; font-family: Tahoma;" transform="" fill-opacity="1" font-size="18px" font-family="Tahoma"><tspan style="-webkit-tap-highlight-color: rgba(0, 0, 0, 0);">exoplanets.org | 6/29/2015</tspan></text></svg>